# xmcd
#
# Track frame offsets:
# 150
# 38480
# 60673
# 78985
# 99565
# 113418
# 133490
# 152175
# 168658
# 183625
# 200870
# 216030
# 232255
# 254670
# 272433
# 291490
# 315308
# 334413
#
# Disc length: 4828 seconds
#
#
# Revision: 0
# Processed by: cddbd v1.5.1PL2 Copyright (c) Steve Scherf et al.
# Submitted via: FreeRIP 2.945 
#
DISCID=1712da12
DTITLE=Dave Koz and Friends - A Smooth Jazz Christmas
DYEAR=2001
DGENRE=Gospel
TTITLE0=Smooth Jazz Christmas Overture
TTITLE1=The Christmas Song
TTITLE2=O'Tannenbaum
TTITLE3=Silent Night
TTITLE4=Beneath The Moonlit Sky
TTITLE5=Little Drummer Boy
TTITLE6=Hark! The Herald Angels Sing
TTITLE7=December Makes Me Feel This Way
TTITLE8=Boogie Woogie Santa Claus
TTITLE9=Have Yourself a Merry Little Christmas
TTITLE10=White Christmas
TTITLE11=Eight Candles
TTITLE12=Get Here
TTITLE13=Twas the Night Before Christmas
TTITLE14=Conquered
TTITLE15=The Dance
TTITLE16=Together Again
TTITLE17=Careless Whisper
EXTD=
EXTT0=
EXTT1=
EXTT2=
EXTT3=
EXTT4=
EXTT5=
EXTT6=
EXTT7=
EXTT8=
EXTT9=
EXTT10=
EXTT11=
EXTT12=
EXTT13=
EXTT14=
EXTT15=
EXTT16=
EXTT17=
PLAYORDER=
